# xmcd
#
# Track frame offsets: 
#        150
#        17077
#        33217
#        47732
#        64772
#        85293
#        102563
#        117009
#        139219
#        152609
#        168377
#        188256
#
# Disc length: 2706 seconds
#
# Revision: 0
# Processed by: cddbd v1.5.2PL0 Copyright (c) Steve Scherf et al.
# Submitted via: ExactAudioCopy v0.99pb5
#
DISCID=920a900c
DTITLE=Various Artist - Summer On The Open Road
DYEAR=2010
DGENRE=Country
TTITLE0=Emerson Drive - I Love This Road
TTITLE1=Doc Walker - Tailgate Revolution
TTITLE2=Johnny Reid - Darlin'
TTITLE3=The Higgins - Flower Child
TTITLE4=Ridley Bent - Heartland Heartbreak
TTITLE5=Doc Walker - That's All
TTITLE6=The Road Hammers - East Bound And Down
TTITLE7=Tara Oram - Living The Dream
TTITLE8=Steven Lee Olsen - Make Hay While The Sun Shines
TTITLE9=Jack Ingram - Barefoot and Crazy
TTITLE10=Prairie Oyster - One Kiss
TTITLE11=The Wilsons - Stick Together
EXTD=
EXTT0=
EXTT1=
EXTT2=
EXTT3=
EXTT4=
EXTT5=
EXTT6=
EXTT7=
EXTT8=
EXTT9=
EXTT10=
EXTT11=
PLAYORDER=
